<svg id="Logo" xmlns="http://www.w3.org/2000/svg" viewBox="0 0 243.13 69.42"><defs><style>.cls-1{font-size:21.36px;font-family:Lato-Thin, Lato;font-weight:200;}.cls-1,.cls-9{fill:#e95378;}.cls-2{letter-spacing:-0.02em;}.cls-3{letter-spacing:-0.02em;}.cls-4{letter-spacing:-0.01em;}.cls-5{letter-spacing:-0.03em;}.cls-6{letter-spacing:-0.01em;}.cls-7{letter-spacing:-0.02em;}.cls-8{letter-spacing:0em;}</style></defs><text class="cls-1" transform="translate(0.05 63.85)"><tspan class="cls-2">H</tspan><tspan x="15.7" y="0">ome </tspan><tspan class="cls-3" x="61.56" y="0">S</tspan><tspan x="72.43" y="0">tudio </tspan><tspan class="cls-4" x="125.25" y="0">P</tspan><tspan class="cls-5" x="137.1" y="0">r</tspan><tspan class="cls-6" x="143.85" y="0">o</tspan><tspan class="cls-7" x="155.51" y="0">f</tspan><tspan class="cls-8" x="162.21" y="0">essionals</tspan></text><path class="cls-9" d="M110.39,35.3,112,29.78h-9.42l-1.37,5.51C104.13,35.15,107.2,35.16,110.39,35.3Z" transform="translate(-59.87 -29.1)"/><path class="cls-9" d="M90.88,36.27l-1.72-6.49H82.73l-2.26,8.51C83.79,37.5,87.24,36.8,90.88,36.27Z" transform="translate(-59.87 -29.1)"/><path class="cls-9" d="M72,40.56,69.33,29.78H59.87l3.81,13.37C66.38,42.29,69.15,41.41,72,40.56Z" transform="translate(-59.87 -29.1)"/><path class="cls-9" d="M99.66,41.39l-3.49,14h-.23L92.43,42.12a118.07,118.07,0,0,0-13.71,2.8L75.94,55.39h-.23l-2.24-9c-2.75.82-5.42,1.66-8,2.49l-.13,0,5.18,18.2H80l6-21,6,21h9.41l7.37-25.88C105.57,41.15,102.56,41.21,99.66,41.39Z" transform="translate(-59.87 -29.1)"/><path class="cls-9" d="M146.93,47.77l-7.8-1.6a15.39,15.39,0,0,1,.17,2.25c0,5.57-2.81,11.14-9.6,11.14-7,0-9.64-5.57-9.64-11.14a13.72,13.72,0,0,1,1.22-5.74c-3.77-.66-6.75-1.09-9.12-1.27a19.7,19.7,0,0,0-1.28,7c0,10.91,7.78,19.37,18.82,19.37,10.73,0,18.79-8.46,18.79-19.37,0-.11,0-.22,0-.33Z" transform="translate(-59.87 -29.1)"/><path class="cls-9" d="M127.06,37.64a10,10,0,0,1,2.64-.35,8.93,8.93,0,0,1,5.93,2l11.7,2.4a18.59,18.59,0,0,0-31.83-6C118.5,36.09,122.19,36.72,127.06,37.64Z" transform="translate(-59.87 -29.1)"/><path class="cls-9" d="M160.31,44.43c1.15-4,4.12-7.14,9.08-7.14,6.61,0,9.6,5.57,9.6,11.13v.06l4.26.91c.31.06,2.05.41,4.84.9,0-.62.08-1.24.08-1.87,0-10.9-8.41-19.32-18.78-19.32a18.84,18.84,0,0,0-18,13.47Z" transform="translate(-59.87 -29.1)"/><path class="cls-9" d="M182.05,55.27l-4.29-.91a8.73,8.73,0,0,1-8.37,5.2c-6.11,0-8.91-4.28-9.51-9.09l-9.31-1.95c.05,10.86,7.81,19.27,18.82,19.27a18.38,18.38,0,0,0,17.32-11.66C184,55.66,182.36,55.33,182.05,55.27Z" transform="translate(-59.87 -29.1)"/><path class="cls-9" d="M200.44,52.16v0h12.08V44.67H200.44V37.25h13.08V29.78H191.93V50.93C194.37,51.32,197.25,51.74,200.44,52.16Z" transform="translate(-59.87 -29.1)"/><path class="cls-9" d="M191.93,57V67.12h8.51V58.2C197.28,57.8,194.42,57.38,191.93,57Z" transform="translate(-59.87 -29.1)"/><path class="cls-9" d="M217.59,59.88v7.24H239V60.25A201.74,201.74,0,0,1,217.59,59.88Z" transform="translate(-59.87 -29.1)"/><path class="cls-9" d="M226.1,54.3V52.13h12.31V44.67H226.1V37.25H239V29.78H217.59v24.1C220.37,54.06,223.22,54.21,226.1,54.3Z" transform="translate(-59.87 -29.1)"/><path class="cls-9" d="M249.33,53.39c.95-.12,2-.27,3-.44v-.59l.41.52A102.57,102.57,0,0,0,265.06,50a10.81,10.81,0,0,0,4.3-9.13c0-7.34-5.25-11.09-12.17-11.09H243.84V54C245.69,53.81,247.53,53.62,249.33,53.39Zm3-16.82h1c3.21,0,7.06.22,7.06,4.88s-3.85,4.89-7.06,4.89h-1Z" transform="translate(-59.87 -29.1)"/><path class="cls-9" d="M256.87,58.22l6.88,8.9h10.82l-9.14-11C262.36,57,259.5,57.69,256.87,58.22Z" transform="translate(-59.87 -29.1)"/><path class="cls-9" d="M250.1,59.34c-2,.26-4.15.47-6.26.62v7.16h8.5V59C251.57,59.14,250.81,59.25,250.1,59.34Z" transform="translate(-59.87 -29.1)"/><path class="cls-9" d="M293.93,45.57l-1.57-.67q-4.49,2.49-8.77,4.46c.43.26.87.51,1.34.74,4.43,2.22,8.42,3.44,8.42,6.15,0,3.49-3.53,3.67-5.39,3.67-4.16,0-9.14-4.21-9.14-4.21l-4.26,7.15a21.84,21.84,0,0,0,14,4.93c7.29,0,14.08-3.12,14.08-12C302.67,50.87,298.1,47.34,293.93,45.57Z" transform="translate(-59.87 -29.1)"/><path class="cls-9" d="M286.48,41.26a2,2,0,0,1-.33-1.07c0-2,1.54-3.35,4.43-3.35a10.72,10.72,0,0,1,3,.45c2.51-1.5,5.06-3.13,7.65-4.92A21.46,21.46,0,0,0,290,29.1c-6,0-12.18,4.43-12.18,11.4A8.75,8.75,0,0,0,279,44.86Q282.65,43.26,286.48,41.26Z" transform="translate(-59.87 -29.1)"/></svg>